<svg width="81" height="80" viewBox="0 0 81 80" fill="none" xmlns="http://www.w3.org/2000/svg">
<path fill-rule="evenodd" clip-rule="evenodd" d="M40.5 80C62.5914 80 80.5 62.0914 80.5 40C80.5 17.9086 62.5914 0 40.5 0C18.4086 0 0.5 17.9086 0.5 40C0.5 62.0914 18.4086 80 40.5 80Z" fill="#DBDBDB"/>
<path fill-rule="evenodd" clip-rule="evenodd" d="M40.5 21.334C44.9267 21.334 48.5 24.9073 48.5 29.334C48.5 33.7607 44.9267 37.334 40.5 37.334C36.0733 37.334 32.5 33.7607 32.5 29.334C32.5 24.9073 36.0733 21.334 40.5 21.334ZM40.5 59.2005C33.8333 59.2005 27.94 55.7872 24.5 50.6139C24.58 45.3072 35.1667 42.4005 40.5 42.4005C45.8067 42.4005 56.42 45.3072 56.5 50.6139C53.06 55.7872 47.1667 59.2005 40.5 59.2005Z" fill="#969696"/>
</svg>
