<svg width="78" height="57" viewBox="0 0 78 57" fill="none" xmlns="http://www.w3.org/2000/svg">
<path d="M17.023 56.4815C17.0519 56.4815 17.0664 56.5247 17.0664 56.6111C17.0664 56.6975 17.0519 56.7407 17.023 56.7407C16.561 56.7407 16.1928 56.7335 15.9185 56.7191L14.3808 56.6975L12.9297 56.7191C12.6843 56.7335 12.345 56.7407 11.9118 56.7407C11.8685 56.7407 11.8468 56.6975 11.8468 56.6111C11.8468 56.5247 11.8685 56.4815 11.9118 56.4815C12.5471 56.4815 12.973 56.4095 13.1896 56.2654C13.4206 56.1214 13.5361 55.8189 13.5361 55.358L13.5145 54.9907L13.103 45.4846L8.3166 56.5895C8.28772 56.6471 8.22997 56.6759 8.14334 56.6759C8.0567 56.6759 7.99895 56.6471 7.97007 56.5895L2.57728 45.571L2.40402 54.2562C2.38958 55.0195 2.52674 55.5813 2.81552 55.9414C3.10429 56.3014 3.57354 56.4815 4.22327 56.4815C4.26659 56.4815 4.28825 56.5247 4.28825 56.6111C4.28825 56.6975 4.26659 56.7407 4.22327 56.7407C3.83343 56.7407 3.53022 56.7335 3.31364 56.7191L2.12247 56.6975L0.931286 56.7191C0.729146 56.7335 0.433156 56.7407 0.0433156 56.7407C0.0144385 56.7407 0 56.6975 0 56.6111C0 56.5247 0.0144385 56.4815 0.0433156 56.4815C1.24171 56.4815 1.84813 55.7397 1.86257 54.2562L2.05749 44.5772C1.59546 43.857 0.974601 43.4969 0.19492 43.4969C0.166043 43.4969 0.151605 43.4537 0.151605 43.3673C0.151605 43.2809 0.166043 43.2377 0.19492 43.2377L1.06123 43.2593C1.2345 43.2737 1.45829 43.2809 1.73262 43.2809C2.05027 43.2809 2.31017 43.2737 2.51231 43.2593C2.71445 43.2449 2.87327 43.2377 2.98878 43.2377C3.17648 43.2377 3.32808 43.3025 3.44359 43.4321C3.5591 43.5617 3.73958 43.8714 3.98504 44.3611L8.79307 54.1049L13.3196 43.7778C13.4639 43.4177 13.6805 43.2377 13.9693 43.2377C14.0559 43.2377 14.1714 43.2449 14.3158 43.2593C14.4602 43.2737 14.6479 43.2809 14.8789 43.2809L15.9835 43.2593C16.1567 43.2449 16.4094 43.2377 16.7415 43.2377C16.7848 43.2377 16.8065 43.2809 16.8065 43.3673C16.8065 43.4537 16.7848 43.4969 16.7415 43.4969C16.034 43.4969 15.5214 43.6121 15.2038 43.8426C14.9006 44.073 14.7562 44.4763 14.7706 45.0525L15.2471 54.9907C15.276 55.4372 15.3337 55.7613 15.4204 55.963C15.507 56.1646 15.6658 56.3014 15.8968 56.3735C16.1278 56.4455 16.5032 56.4815 17.023 56.4815Z" fill="#4C1C20"/>
<path d="M25.2769 57C23.9341 57 22.7357 56.6903 21.6817 56.071C20.6422 55.4372 19.8336 54.5874 19.2561 53.5216C18.693 52.4414 18.4114 51.2675 18.4114 50C18.4114 48.5165 18.7868 47.249 19.5376 46.1975C20.2884 45.1317 21.2486 44.3323 22.4181 43.7994C23.6021 43.2665 24.8077 43 26.0349 43C27.4066 43 28.6122 43.3241 29.6518 43.9722C30.6914 44.606 31.4855 45.4486 32.0342 46.5C32.5973 47.5514 32.8788 48.6677 32.8788 49.8488C32.8788 51.1595 32.5323 52.3621 31.8392 53.4568C31.1462 54.5514 30.2149 55.4156 29.0454 56.0494C27.8903 56.6831 26.6341 57 25.2769 57ZM26.0349 56.5247C26.959 56.5247 27.7892 56.287 28.5256 55.8117C29.262 55.3364 29.8395 54.6451 30.2582 53.7377C30.6914 52.8158 30.908 51.7212 30.908 50.4537C30.908 49.1142 30.6697 47.9187 30.1932 46.8673C29.7312 45.8158 29.0598 44.9949 28.1791 44.4043C27.3128 43.8138 26.3021 43.5185 25.147 43.5185C23.6454 43.5185 22.4758 44.0298 21.6384 45.0525C20.801 46.0607 20.3823 47.4578 20.3823 49.2438C20.3823 50.6121 20.6205 51.8508 21.097 52.9599C21.5734 54.0689 22.2376 54.9403 23.0895 55.5741C23.9558 56.2078 24.9376 56.5247 26.0349 56.5247Z" fill="#4C1C20"/>
<path d="M37.1006 45.6574C37.1006 46.2047 37.2378 46.6872 37.5121 47.1049C37.7865 47.5082 38.1185 47.8611 38.5084 48.1636C38.8982 48.4516 39.4397 48.8045 40.1327 49.2222C40.8546 49.6687 41.425 50.0576 41.8437 50.3889C42.2768 50.7058 42.645 51.1019 42.9482 51.5772C43.2514 52.0525 43.403 52.6142 43.403 53.2623C43.403 53.9681 43.2153 54.6091 42.8399 55.1852C42.479 55.7469 41.952 56.1934 41.2589 56.5247C40.5803 56.8416 39.7862 57 38.8766 57C38.299 57 37.7287 56.928 37.1656 56.7839C36.6025 56.6543 36.1116 56.4599 35.6929 56.2006C35.6207 56.1574 35.5701 56.107 35.5413 56.0494C35.5124 55.9918 35.498 55.9053 35.498 55.7901L35.2814 52.7006C35.2669 52.643 35.2958 52.607 35.368 52.5926C35.4546 52.5782 35.5052 52.5998 35.5196 52.6574C35.8661 53.7521 36.3498 54.6811 36.9707 55.4444C37.5915 56.2078 38.4001 56.5895 39.3964 56.5895C40.075 56.5895 40.6381 56.4095 41.0857 56.0494C41.5477 55.6749 41.7787 55.07 41.7787 54.2346C41.7787 53.6008 41.6343 53.0463 41.3456 52.571C41.0568 52.0957 40.703 51.6996 40.2843 51.3827C39.88 51.0514 39.3314 50.677 38.6383 50.2593C37.9597 49.8272 37.4183 49.4599 37.014 49.1574C36.6242 48.8405 36.2921 48.4588 36.0177 48.0123C35.7434 47.5514 35.6062 47.0185 35.6062 46.4136C35.6062 45.679 35.8012 45.0525 36.191 44.534C36.5953 44.0154 37.1151 43.6337 37.7504 43.3889C38.4001 43.1296 39.0787 43 39.7862 43C40.7536 43 41.6271 43.1656 42.4068 43.4969C42.6234 43.5833 42.7317 43.713 42.7317 43.8858L42.8399 46.5864C42.8399 46.644 42.8039 46.68 42.7317 46.6944C42.6595 46.7088 42.6161 46.6872 42.6017 46.6296C42.4429 45.8519 42.1036 45.1173 41.5838 44.4259C41.064 43.7202 40.3276 43.3673 39.3747 43.3673C38.6528 43.3673 38.0897 43.5833 37.6854 44.0154C37.2955 44.4475 37.1006 44.9949 37.1006 45.6574Z" fill="#4C1C20"/>
<path d="M62.1442 56.4815C62.1731 56.4815 62.1875 56.5247 62.1875 56.6111C62.1875 56.6975 62.1731 56.7407 62.1442 56.7407C61.6822 56.7407 61.314 56.7335 61.0397 56.7191L59.502 56.6975L58.0509 56.7191C57.8054 56.7335 57.4661 56.7407 57.033 56.7407C56.9897 56.7407 56.968 56.6975 56.968 56.6111C56.968 56.5247 56.9897 56.4815 57.033 56.4815C57.6683 56.4815 58.0942 56.4095 58.3108 56.2654C58.5418 56.1214 58.6573 55.8189 58.6573 55.358L58.6357 54.9907L58.2242 45.4846L53.4378 56.5895C53.4089 56.6471 53.3512 56.6759 53.2645 56.6759C53.1779 56.6759 53.1201 56.6471 53.0913 56.5895L47.6985 45.571L47.5252 54.2562C47.5108 55.0195 47.6479 55.5813 47.9367 55.9414C48.2255 56.3014 48.6947 56.4815 49.3445 56.4815C49.3878 56.4815 49.4094 56.5247 49.4094 56.6111C49.4094 56.6975 49.3878 56.7407 49.3445 56.7407C48.9546 56.7407 48.6514 56.7335 48.4348 56.7191L47.2437 56.6975L46.0525 56.7191C45.8503 56.7335 45.5543 56.7407 45.1645 56.7407C45.1356 56.7407 45.1212 56.6975 45.1212 56.6111C45.1212 56.5247 45.1356 56.4815 45.1645 56.4815C46.3629 56.4815 46.9693 55.7397 46.9838 54.2562L47.1787 44.5772C46.7166 43.857 46.0958 43.4969 45.3161 43.4969C45.2872 43.4969 45.2728 43.4537 45.2728 43.3673C45.2728 43.2809 45.2872 43.2377 45.3161 43.2377L46.1824 43.2593C46.3557 43.2737 46.5795 43.2809 46.8538 43.2809C47.1715 43.2809 47.4314 43.2737 47.6335 43.2593C47.8356 43.2449 47.9945 43.2377 48.11 43.2377C48.2977 43.2377 48.4493 43.3025 48.5648 43.4321C48.6803 43.5617 48.8608 43.8714 49.1062 44.3611L53.9143 54.1049L58.4407 43.7778C58.5851 43.4177 58.8017 43.2377 59.0905 43.2377C59.1771 43.2377 59.2926 43.2449 59.437 43.2593C59.5814 43.2737 59.7691 43.2809 60.0001 43.2809L61.1047 43.2593C61.2779 43.2449 61.5306 43.2377 61.8627 43.2377C61.906 43.2377 61.9277 43.2809 61.9277 43.3673C61.9277 43.4537 61.906 43.4969 61.8627 43.4969C61.1552 43.4969 60.6426 43.6121 60.325 43.8426C60.0218 44.073 59.8774 44.4763 59.8918 45.0525L60.3683 54.9907C60.3972 55.4372 60.4549 55.7613 60.5415 55.963C60.6282 56.1646 60.787 56.3014 61.018 56.3735C61.249 56.4455 61.6244 56.4815 62.1442 56.4815Z" fill="#4C1C20"/>
<path d="M70.3981 57C69.0553 57 67.8569 56.6903 66.8029 56.071C65.7633 55.4372 64.9548 54.5874 64.3772 53.5216C63.8141 52.4414 63.5326 51.2675 63.5326 50C63.5326 48.5165 63.908 47.249 64.6588 46.1975C65.4096 45.1317 66.3698 44.3323 67.5393 43.7994C68.7232 43.2665 69.9289 43 71.1561 43C72.5278 43 73.7334 43.3241 74.773 43.9722C75.8126 44.606 76.6067 45.4486 77.1553 46.5C77.7185 47.5514 78 48.6677 78 49.8488C78 51.1595 77.6535 52.3621 76.9604 53.4568C76.2674 54.5514 75.3361 55.4156 74.1666 56.0494C73.0115 56.6831 71.7553 57 70.3981 57ZM71.1561 56.5247C72.0802 56.5247 72.9104 56.287 73.6468 55.8117C74.3831 55.3364 74.9607 54.6451 75.3794 53.7377C75.8126 52.8158 76.0291 51.7212 76.0291 50.4537C76.0291 49.1142 75.7909 47.9187 75.3144 46.8673C74.8524 45.8158 74.181 44.9949 73.3003 44.4043C72.4339 43.8138 71.4232 43.5185 70.2682 43.5185C68.7666 43.5185 67.597 44.0298 66.7596 45.0525C65.9222 46.0607 65.5034 47.4578 65.5034 49.2438C65.5034 50.6121 65.7417 51.8508 66.2182 52.9599C66.6946 54.0689 67.3588 54.9403 68.2107 55.5741C69.077 56.2078 70.0588 56.5247 71.1561 56.5247Z" fill="#4C1C20"/>
<path d="M45.3772 6.58251L38.9217 13.2516L32.5215 6.64198C32.0549 6.16017 31.6213 5.71154 31.2182 5.29458C27.6618 1.6154 26.4891 0.402273 26.1372 0.617981C25.9642 0.724095 25.9897 1.17598 26.0278 1.85016C26.0366 2.00546 26.0461 2.17256 26.0539 2.34994L26.1149 3.73012L39.0174 17.0549L51.9899 3.64921L51.9957 1.86856C51.9989 0.88904 51.9637 0.048532 51.9172 0.000569778C51.8708 -0.0471975 48.9277 2.91457 45.3772 6.58251Z" fill="#4C1C20"/>
<path d="M45.3853 13.5907L38.9217 20.2705L26.0846 7.01398L26.1772 31H28.5408V13.4612L30.6168 15.5793V31H33.259V18.327L38.9209 24.1663L44.7715 18.1319V31H47.4138V15.3844L49.4898 13.2662L49.4891 31H51.9419L51.9876 20.109C52.0152 13.5501 51.9952 7.89738 51.9433 7.54741C51.8495 6.91513 51.8061 6.95529 45.3853 13.5907Z" fill="#4C1C20"/>
</svg>
